<svg xmlns="http://www.w3.org/2000/svg" viewBox="0 0 100 100">
  <defs>
    <linearGradient id="pkGrad" x1="0%" y1="0%" x2="100%" y2="100%">
      <stop offset="0%" style="stop-color:#3B82F6;stop-opacity:1" />
      <stop offset="50%" style="stop-color:#6366F1;stop-opacity:1" />
      <stop offset="100%" style="stop-color:#8B5CF6;stop-opacity:1" />
    </linearGradient>
    <linearGradient id="accentGrad" x1="0%" y1="0%" x2="100%" y2="0%">
      <stop offset="0%" style="stop-color:#06B6D4;stop-opacity:1" />
      <stop offset="100%" style="stop-color:#10B981;stop-opacity:1" />
    </linearGradient>
  </defs>
  
  <!-- Background hexagon (K8s inspired) -->
  <path d="M 50 5 L 90 27.5 L 90 72.5 L 50 95 L 10 72.5 L 10 27.5 Z" 
        fill="url(#pkGrad)"/>
  
  <!-- Inner dark hexagon -->
  <path d="M 50 15 L 80 32.5 L 80 67.5 L 50 85 L 20 67.5 L 20 32.5 Z" 
        fill="#1E293B" opacity="0.4"/>
  
  <!-- P Letter -->
  <path d="M 32 35 L 32 65 M 32 35 L 45 35 Q 52 35, 52 42.5 Q 52 50, 45 50 L 32 50" 
        stroke="white" stroke-width="5" fill="none" 
        stroke-linecap="round" stroke-linejoin="round"/>
  
  <!-- K Letter -->
  <path d="M 58 35 L 58 65 M 58 48 L 70 35 M 58 48 L 70 65" 
        stroke="white" stroke-width="5" fill="none" 
        stroke-linecap="round" stroke-linejoin="round"/>
  
  <!-- Small accent line (pipeline indicator) -->
  <rect x="40" y="72" width="20" height="2" rx="1" fill="url(#accentGrad)"/>
</svg>